<?xml version="1.0" standalone="no"?><!DOCTYPE svg PUBLIC "-//W3C//DTD SVG 1.1//EN" "http://www.w3.org/Graphics/SVG/1.1/DTD/svg11.dtd"><svg t="1735356848200" class="icon" viewBox="0 0 1024 1024" version="1.1" xmlns="http://www.w3.org/2000/svg" p-id="22168" data-spm-anchor-id="a313x.search_index.0.i18.29f93a81UbzhjV" xmlns:xlink="http://www.w3.org/1999/xlink" width="200" height="200"><path d="M337 457.1h483c15.1 0 28.3 10.5 31.8 25.1l5.7 24.1-347.2 118.2L337 457.1z m-84.7 0l195.4 188.7-346.5 118 61.5-281c3.3-15 16.5-25.7 31.9-25.7h57.7zM856.8 959l-298-287.7L871 563.9l83.7 354.9c4.1 17.5-6.7 35.2-24.3 39.3-2.5 0.5-5 0.9-7.5 0.9h-66.1z m-84.8 0H99c-18.1 0-32.7-14.6-32.7-32.7 0-2.4 0.2-4.7 0.8-7l18.7-85.5 410.5-141.2C496.4 692.7 772 959 772 959z" fill="#1296db" p-id="22169" data-spm-anchor-id="a313x.search_index.0.i16.29f93a81UbzhjV" class=""></path><path d="M330.6 420.2l167.3 244.1c3.4 5 10.1 6.2 15.1 2.8 1.1-0.8 2.1-1.7 2.8-2.8l167.4-244.1c28.7-37.5 45.7-84.3 45.7-135.1C729 162.4 629.6 63 507 63s-222.1 99.4-222.1 222.1c0 50.8 17 97.7 45.7 135.1z" fill="#d81e06" p-id="22170" data-spm-anchor-id="a313x.search_index.0.i17.29f93a81UbzhjV" class="selected"></path><path d="M401.9 284c0 58 47 105.1 105 105.1S612 342.1 612 284c0-58-47-105.1-105-105.1S401.9 226 401.9 284z" fill="#FFFFFF" p-id="22171"></path></svg>